<mxfile host="65bd71144e">
    <diagram id="J7o75HjcIceX8dAy3MRA" name="ページ1">
        <mxGraphModel dx="1634" dy="1214" grid="1" gridSize="10" guides="1" tooltips="1" connect="1" arrows="1" fold="1" page="1" pageScale="1" pageWidth="827" pageHeight="1169" math="0" shadow="0">
            <root>
                <mxCell id="0"/>
                <mxCell id="1" parent="0"/>
                <mxCell id="2" value="ドメインオブジェクト" style="whiteSpace=wrap;html=1;align=center;verticalAlign=top;fontSize=18;movable=1;resizable=1;rotatable=1;deletable=1;editable=1;connectable=1;fillColor=#60a917;fontColor=#ffffff;strokeColor=#2D7600;flipH=1;flipV=1;" parent="1" vertex="1">
                    <mxGeometry x="40" y="20" width="760" height="430" as="geometry"/>
                </mxCell>
                <mxCell id="3" value="値オブジェクト" style="whiteSpace=wrap;html=1;align=center;verticalAlign=middle;fontSize=18;fillColor=#1ba1e2;fontColor=#ffffff;strokeColor=#006EAF;" parent="1" vertex="1">
                    <mxGeometry x="65.51724137931035" y="54.23892817268328" width="331.72413793103453" height="85.59732043170823" as="geometry"/>
                </mxCell>
                <mxCell id="11" value="エンティティ" style="whiteSpace=wrap;html=1;align=center;verticalAlign=middle;fontSize=18;fillColor=#0050ef;fontColor=#ffffff;strokeColor=#001DBC;" parent="1" vertex="1">
                    <mxGeometry x="435.5172413793104" y="54.23892817268328" width="331.72413793103453" height="85.59732043170823" as="geometry"/>
                </mxCell>
                <mxCell id="24" value="&lt;h3&gt;&lt;span style=&quot;background-color: initial;&quot;&gt;ドメインサービス&lt;/span&gt;&lt;/h3&gt;&lt;p&gt;&lt;font style=&quot;font-weight: normal; font-size: 16px;&quot;&gt;・値オブジェクトやエンティティに定義すると不自然に感じる操作はドメインサービスに定義する&lt;/font&gt;&lt;/p&gt;&lt;div&gt;&lt;span style=&quot;font-weight: 400;&quot;&gt;&lt;font style=&quot;font-size: 16px;&quot;&gt;・値オブジェクトやエンティティに定義するべきか、ドメインサービスに定義するべきか、迷うときはまずは値オブジェクトやエンティティに定義する&lt;/font&gt;&lt;/span&gt;&lt;/div&gt;&lt;div&gt;&lt;span style=&quot;font-weight: 400;&quot;&gt;&lt;font style=&quot;font-size: 16px;&quot;&gt;&lt;br&gt;&lt;/font&gt;&lt;/span&gt;&lt;/div&gt;&lt;div&gt;&lt;span style=&quot;font-size: 16px;&quot;&gt;・ドメインサービスの濫用はデータとふるまいを断絶させ、ロジックの点在を促す行為になる。ロジックの点在はソフトウェアの変化を阻害し、深刻に停滞させる&lt;/span&gt;&lt;/div&gt;" style="text;html=1;strokeColor=#3A5431;fillColor=#6d8764;spacing=5;spacingTop=-20;whiteSpace=wrap;overflow=hidden;rounded=0;fontSize=18;container=1;fontColor=#ffffff;" parent="1" vertex="1">
                    <mxGeometry x="65.52" y="190" width="692.76" height="240" as="geometry"/>
                </mxCell>
            </root>
        </mxGraphModel>
    </diagram>
</mxfile>